<svg width="11" height="11" viewBox="0 0 11 11" fill="none" xmlns="http://www.w3.org/2000/svg">
<path d="M1.94141 5.66016C2.45182 6.17057 3.07161 6.42578 3.80078 6.42578C4.52995 6.42578 5.14974 6.17057 5.66016 5.66016C6.17057 5.14974 6.42578 4.52995 6.42578 3.80078C6.42578 3.07161 6.17057 2.45182 5.66016 1.94141C5.14974 1.43099 4.52995 1.17578 3.80078 1.17578C3.07161 1.17578 2.45182 1.43099 1.94141 1.94141C1.43099 2.45182 1.17578 3.07161 1.17578 3.80078C1.17578 4.52995 1.43099 5.14974 1.94141 5.66016ZM7.30078 6.42578L10.1992 9.32422L9.32422 10.1992L6.42578 7.30078V6.83594L6.26172 6.67188C5.56901 7.27344 4.7487 7.57422 3.80078 7.57422C2.74349 7.57422 1.8457 7.20964 1.10742 6.48047C0.369141 5.7513 0 4.85807 0 3.80078C0 2.74349 0.369141 1.8457 1.10742 1.10742C1.8457 0.369141 2.74349 0 3.80078 0C4.85807 0 5.7513 0.369141 6.48047 1.10742C7.20964 1.8457 7.57422 2.74349 7.57422 3.80078C7.57422 4.18359 7.48307 4.61654 7.30078 5.09961C7.11849 5.58268 6.90885 5.97005 6.67188 6.26172L6.83594 6.42578H7.30078Z" fill="#64748B"/>
</svg>
